<mxfile host="app.diagrams.net" modified="2022-04-24T13:28:08.127Z" agent="5.0 (X11; Linux x86_64) AppleWebKit/537.36 (KHTML, like Gecko) Chrome/100.0.4896.75 Safari/537.36" etag="2D09PSN0gNoKte3LUk46" version="17.1.3" type="github">
  <diagram id="NH6Gf-CMSBDaFawM9D_D" name="Page-1">
    <mxGraphModel dx="1128" dy="626" grid="1" gridSize="10" guides="1" tooltips="1" connect="1" arrows="1" fold="1" page="1" pageScale="1" pageWidth="850" pageHeight="1100" math="0" shadow="0">
      <root>
        <mxCell id="0" />
        <mxCell id="1" parent="0" />
        <mxCell id="i4C92lQRDEW9vmuvscjG-1" value="&lt;span style=&quot;color: rgba(0 , 0 , 0 , 0) ; font-family: monospace ; font-size: 0px&quot;&gt;%3CmxGraphModel%3E%3Croot%3E%3CmxCell%20id%3D%220%22%2F%3E%3CmxCell%20id%3D%221%22%20parent%3D%220%22%2F%3E%3CmxCell%20id%3D%222%22%20value%3D%22%26lt%3Bfont%20style%3D%26quot%3Bfont-size%3A%2018px%26quot%3B%26gt%3B1%26lt%3B%2Ffont%26gt%3B%22%20style%3D%22text%3Bhtml%3D1%3Bresizable%3D0%3Bautosize%3D1%3Balign%3Dcenter%3BverticalAlign%3Dmiddle%3Bpoints%3D%5B%5D%3Brounded%3D0%3Bshadow%3D0%3Bglass%3D0%3Bsketch%3D1%3BfillStyle%3Dauto%3B%22%20vertex%3D%221%22%20parent%3D%221%22%3E%3CmxGeometry%20x%3D%22135%22%20y%3D%22140%22%20width%3D%2230%22%20height%3D%2220%22%20as%3D%22geometry%22%2F%3E%3C%2FmxCell%3E%3C%2Froot%3E%3C%2FmxGraphModel%3E&lt;/span&gt;" style="rounded=0;whiteSpace=wrap;html=1;fillColor=#dae8fc;strokeColor=#6c8ebf;glass=0;sketch=1;shadow=0;gradientColor=none;fillStyle=auto;" vertex="1" parent="1">
          <mxGeometry x="120" y="120" width="120" height="60" as="geometry" />
        </mxCell>
        <mxCell id="i4C92lQRDEW9vmuvscjG-3" value="" style="rounded=0;whiteSpace=wrap;html=1;fillColor=#dae8fc;strokeColor=#6c8ebf;glass=0;sketch=1;shadow=0;gradientColor=none;fillStyle=auto;" vertex="1" parent="1">
          <mxGeometry x="320" y="180" width="120" height="60" as="geometry" />
        </mxCell>
        <mxCell id="i4C92lQRDEW9vmuvscjG-4" value="" style="rounded=0;whiteSpace=wrap;html=1;fillColor=#dae8fc;strokeColor=#6c8ebf;glass=0;sketch=1;shadow=0;gradientColor=none;fillStyle=auto;" vertex="1" parent="1">
          <mxGeometry x="520" y="240" width="120" height="60" as="geometry" />
        </mxCell>
        <mxCell id="i4C92lQRDEW9vmuvscjG-6" value="" style="endArrow=none;html=1;rounded=0;" edge="1" parent="1">
          <mxGeometry width="50" height="50" relative="1" as="geometry">
            <mxPoint x="179.76" y="180" as="sourcePoint" />
            <mxPoint x="179.76" y="120" as="targetPoint" />
          </mxGeometry>
        </mxCell>
        <mxCell id="i4C92lQRDEW9vmuvscjG-7" value="" style="endArrow=none;html=1;rounded=0;" edge="1" parent="1">
          <mxGeometry width="50" height="50" relative="1" as="geometry">
            <mxPoint x="379.76" y="240" as="sourcePoint" />
            <mxPoint x="379.76" y="180" as="targetPoint" />
          </mxGeometry>
        </mxCell>
        <mxCell id="i4C92lQRDEW9vmuvscjG-8" value="" style="endArrow=none;html=1;rounded=0;" edge="1" parent="1">
          <mxGeometry width="50" height="50" relative="1" as="geometry">
            <mxPoint x="579.76" y="300" as="sourcePoint" />
            <mxPoint x="579.76" y="240" as="targetPoint" />
          </mxGeometry>
        </mxCell>
        <mxCell id="i4C92lQRDEW9vmuvscjG-9" value="&lt;font style=&quot;font-size: 18px&quot;&gt;1&lt;/font&gt;" style="text;html=1;resizable=0;autosize=1;align=center;verticalAlign=middle;points=[];rounded=0;shadow=0;glass=0;sketch=1;fillStyle=auto;" vertex="1" parent="1">
          <mxGeometry x="135" y="140" width="30" height="20" as="geometry" />
        </mxCell>
        <mxCell id="i4C92lQRDEW9vmuvscjG-10" value="&lt;font style=&quot;font-size: 18px&quot;&gt;2&lt;/font&gt;" style="text;html=1;resizable=0;autosize=1;align=center;verticalAlign=middle;points=[];rounded=0;shadow=0;glass=0;sketch=1;fillStyle=auto;" vertex="1" parent="1">
          <mxGeometry x="335" y="200" width="30" height="20" as="geometry" />
        </mxCell>
        <mxCell id="i4C92lQRDEW9vmuvscjG-11" value="&lt;font style=&quot;font-size: 18px&quot;&gt;3&lt;/font&gt;" style="text;html=1;resizable=0;autosize=1;align=center;verticalAlign=middle;points=[];rounded=0;shadow=0;glass=0;sketch=1;fillStyle=auto;" vertex="1" parent="1">
          <mxGeometry x="540" y="260" width="30" height="20" as="geometry" />
        </mxCell>
        <mxCell id="i4C92lQRDEW9vmuvscjG-12" value="&lt;font style=&quot;font-size: 18px&quot;&gt;300&lt;/font&gt;" style="text;html=1;resizable=0;autosize=1;align=center;verticalAlign=middle;points=[];rounded=0;shadow=0;glass=0;sketch=1;fillStyle=auto;" vertex="1" parent="1">
          <mxGeometry x="180" y="140" width="50" height="20" as="geometry" />
        </mxCell>
        <mxCell id="i4C92lQRDEW9vmuvscjG-13" value="&lt;font style=&quot;font-size: 18px&quot;&gt;200&lt;/font&gt;" style="text;html=1;resizable=0;autosize=1;align=center;verticalAlign=middle;points=[];rounded=0;shadow=0;glass=0;sketch=1;fillStyle=auto;" vertex="1" parent="1">
          <mxGeometry x="380" y="200" width="50" height="20" as="geometry" />
        </mxCell>
        <mxCell id="i4C92lQRDEW9vmuvscjG-14" value="&lt;font style=&quot;font-size: 18px&quot;&gt;NULL&lt;/font&gt;" style="text;html=1;resizable=0;autosize=1;align=center;verticalAlign=middle;points=[];rounded=0;shadow=0;glass=0;sketch=1;fillStyle=auto;" vertex="1" parent="1">
          <mxGeometry x="580" y="260" width="60" height="20" as="geometry" />
        </mxCell>
        <mxCell id="i4C92lQRDEW9vmuvscjG-15" value="" style="curved=1;endArrow=classic;html=1;rounded=0;fontFamily=Helvetica;fontSize=18;fontColor=default;exitX=0.997;exitY=0.591;exitDx=0;exitDy=0;exitPerimeter=0;entryX=0;entryY=0.5;entryDx=0;entryDy=0;" edge="1" parent="1" source="i4C92lQRDEW9vmuvscjG-1" target="i4C92lQRDEW9vmuvscjG-3">
          <mxGeometry width="50" height="50" relative="1" as="geometry">
            <mxPoint x="260" y="150" as="sourcePoint" />
            <mxPoint x="310" y="100" as="targetPoint" />
            <Array as="points">
              <mxPoint x="280" y="155" />
              <mxPoint x="280" y="200" />
              <mxPoint x="290" y="210" />
            </Array>
          </mxGeometry>
        </mxCell>
        <mxCell id="i4C92lQRDEW9vmuvscjG-18" value="" style="curved=1;endArrow=classic;html=1;rounded=0;fontFamily=Helvetica;fontSize=18;fontColor=default;exitX=1;exitY=0.5;exitDx=0;exitDy=0;entryX=0;entryY=0.5;entryDx=0;entryDy=0;" edge="1" parent="1" source="i4C92lQRDEW9vmuvscjG-3" target="i4C92lQRDEW9vmuvscjG-4">
          <mxGeometry width="50" height="50" relative="1" as="geometry">
            <mxPoint x="439.6399999999999" y="205.46000000000004" as="sourcePoint" />
            <mxPoint x="520" y="260" as="targetPoint" />
            <Array as="points">
              <mxPoint x="480" y="210" />
              <mxPoint x="480" y="250" />
              <mxPoint x="480" y="270" />
            </Array>
          </mxGeometry>
        </mxCell>
        <mxCell id="i4C92lQRDEW9vmuvscjG-19" value="" style="rounded=0;whiteSpace=wrap;html=1;shadow=0;glass=0;sketch=1;fillStyle=auto;fontFamily=Helvetica;fontSize=18;fontColor=default;strokeColor=#82b366;fillColor=#d5e8d4;gradientColor=none;" vertex="1" parent="1">
          <mxGeometry x="40" y="135" width="40" height="30" as="geometry" />
        </mxCell>
        <mxCell id="i4C92lQRDEW9vmuvscjG-20" value="" style="rounded=0;whiteSpace=wrap;html=1;shadow=0;glass=0;sketch=1;fillStyle=auto;fontFamily=Helvetica;fontSize=18;fontColor=default;strokeColor=#82b366;fillColor=#d5e8d4;gradientColor=none;" vertex="1" parent="1">
          <mxGeometry x="680" y="255" width="40" height="30" as="geometry" />
        </mxCell>
        <mxCell id="i4C92lQRDEW9vmuvscjG-34" value="" style="edgeStyle=orthogonalEdgeStyle;rounded=0;orthogonalLoop=1;jettySize=auto;html=1;fontFamily=Helvetica;fontSize=14;fontColor=default;" edge="1" parent="1" source="i4C92lQRDEW9vmuvscjG-22">
          <mxGeometry relative="1" as="geometry">
            <mxPoint x="120" y="150" as="targetPoint" />
          </mxGeometry>
        </mxCell>
        <mxCell id="i4C92lQRDEW9vmuvscjG-22" value="&lt;span style=&quot;font-size: 16px&quot;&gt;100&lt;/span&gt;" style="text;html=1;resizable=0;autosize=1;align=center;verticalAlign=middle;points=[];rounded=0;shadow=0;glass=0;sketch=1;fillStyle=auto;" vertex="1" parent="1">
          <mxGeometry x="40" y="140" width="40" height="20" as="geometry" />
        </mxCell>
        <mxCell id="i4C92lQRDEW9vmuvscjG-35" value="" style="edgeStyle=orthogonalEdgeStyle;rounded=0;orthogonalLoop=1;jettySize=auto;html=1;fontFamily=Helvetica;fontSize=14;fontColor=default;" edge="1" parent="1" source="i4C92lQRDEW9vmuvscjG-23" target="i4C92lQRDEW9vmuvscjG-14">
          <mxGeometry relative="1" as="geometry" />
        </mxCell>
        <mxCell id="i4C92lQRDEW9vmuvscjG-23" value="&lt;span style=&quot;font-size: 16px&quot;&gt;200&lt;/span&gt;" style="text;html=1;resizable=0;autosize=1;align=center;verticalAlign=middle;points=[];rounded=0;shadow=0;glass=0;sketch=1;fillStyle=auto;" vertex="1" parent="1">
          <mxGeometry x="680" y="260" width="40" height="20" as="geometry" />
        </mxCell>
        <mxCell id="i4C92lQRDEW9vmuvscjG-25" value="" style="rounded=0;whiteSpace=wrap;html=1;shadow=0;glass=0;sketch=1;fillStyle=auto;fontFamily=Helvetica;fontSize=18;fontColor=default;strokeColor=default;fillColor=#99CCFF;gradientColor=none;" vertex="1" parent="1">
          <mxGeometry x="160" y="70" width="40" height="30" as="geometry" />
        </mxCell>
        <mxCell id="i4C92lQRDEW9vmuvscjG-26" value="&lt;span style=&quot;font-size: 16px&quot;&gt;100&lt;/span&gt;" style="text;html=1;resizable=0;autosize=1;align=center;verticalAlign=middle;points=[];rounded=0;shadow=0;glass=0;sketch=1;fillStyle=auto;fillColor=#99CCFF;" vertex="1" parent="1">
          <mxGeometry x="160" y="75" width="40" height="20" as="geometry" />
        </mxCell>
        <mxCell id="i4C92lQRDEW9vmuvscjG-28" value="" style="rounded=0;whiteSpace=wrap;html=1;shadow=0;glass=0;sketch=1;fillStyle=auto;fontFamily=Helvetica;fontSize=18;fontColor=default;strokeColor=default;fillColor=#99CCFF;gradientColor=none;" vertex="1" parent="1">
          <mxGeometry x="360" y="130" width="40" height="30" as="geometry" />
        </mxCell>
        <mxCell id="i4C92lQRDEW9vmuvscjG-29" value="&lt;span style=&quot;font-size: 16px&quot;&gt;300&lt;/span&gt;" style="text;html=1;resizable=0;autosize=1;align=center;verticalAlign=middle;points=[];rounded=0;shadow=0;glass=0;sketch=1;fillStyle=auto;fillColor=#99CCFF;" vertex="1" parent="1">
          <mxGeometry x="360" y="135" width="40" height="20" as="geometry" />
        </mxCell>
        <mxCell id="i4C92lQRDEW9vmuvscjG-30" value="" style="rounded=0;whiteSpace=wrap;html=1;shadow=0;glass=0;sketch=1;fillStyle=auto;fontFamily=Helvetica;fontSize=18;fontColor=default;strokeColor=default;fillColor=#99CCFF;gradientColor=none;" vertex="1" parent="1">
          <mxGeometry x="560" y="190" width="40" height="30" as="geometry" />
        </mxCell>
        <mxCell id="i4C92lQRDEW9vmuvscjG-31" value="&lt;span style=&quot;font-size: 16px&quot;&gt;200&lt;/span&gt;" style="text;html=1;resizable=0;autosize=1;align=center;verticalAlign=middle;points=[];rounded=0;shadow=0;glass=0;sketch=1;fillStyle=auto;fillColor=#99CCFF;" vertex="1" parent="1">
          <mxGeometry x="560" y="195" width="40" height="20" as="geometry" />
        </mxCell>
        <mxCell id="i4C92lQRDEW9vmuvscjG-32" value="HEAD" style="text;html=1;resizable=0;autosize=1;align=center;verticalAlign=middle;points=[];fillColor=none;strokeColor=none;rounded=0;shadow=0;glass=0;sketch=1;fillStyle=auto;fontFamily=Helvetica;fontSize=14;fontColor=default;" vertex="1" parent="1">
          <mxGeometry x="35" y="170" width="50" height="20" as="geometry" />
        </mxCell>
        <mxCell id="i4C92lQRDEW9vmuvscjG-33" value="TAIL" style="text;html=1;resizable=0;autosize=1;align=center;verticalAlign=middle;points=[];fillColor=none;strokeColor=none;rounded=0;shadow=0;glass=0;sketch=1;fillStyle=auto;fontFamily=Helvetica;fontSize=14;fontColor=default;" vertex="1" parent="1">
          <mxGeometry x="680" y="290" width="40" height="20" as="geometry" />
        </mxCell>
      </root>
    </mxGraphModel>
  </diagram>
</mxfile>
